<svg height="512" viewBox="0 0 512 512" width="512" xmlns="http://www.w3.org/2000/svg"><g id="Layer_2" data-name="Layer 2"><g id="Layer_1-2" data-name="Layer 1"><g id="C"><circle cx="256" cy="256" fill="#272c3d" r="256"/><path d="m204.73 368a113.28 113.28 0 0 1 -46.2-45.15q-16.28-29-16.28-66.85t16.63-67a114.46 114.46 0 0 1 46.37-45.15q29.75-15.95 67.9-15.95 54.26 0 93.1 38.15l-35.35 35.35q-23.44-22.4-56.35-22.4-22 0-39 9.63a66.09 66.09 0 0 0 -26.25 27.12q-9.3 17.51-9.3 40.25t9.28 40.25a66.05 66.05 0 0 0 26.25 27.13q17 9.63 39 9.62a91.41 91.41 0 0 0 33.6-6.3 80.71 80.71 0 0 0 28-18.2l33.62 37.5q-39.55 38.11-95.55 38.1-39.55 0-69.47-16.1z" fill="#fff"/></g></g></g></svg>